<svg height="512pt" viewBox="0 0 512 512.00015" width="512pt" xmlns="http://www.w3.org/2000/svg"><path d="m391 391v-121.507812l-121.507812 121.507812zm0 0"/><path d="m466.996094 121.003906h45v-105.996094c0-6.066406-3.644532-11.542968-9.257813-13.859374-5.609375-2.34375-12.054687-1.023438-16.347656 3.253906l-481.992187 481.992187c-4.292969 4.292969-5.582032 10.738281-3.253907 16.347657 2.316407 5.609374 7.792969 9.257812 13.859375 9.257812h105.996094v-45c0-8.289062 6.710938-15 15-15 8.292969 0 15 6.710938 15 15v45h30v-45c0-8.289062 6.710938-15 15-15 8.292969 0 15 6.710938 15 15v45h30v-45c0-8.289062 6.707031-15 15-15 8.289062 0 15 6.710938 15 15v45h30v-45c0-8.289062 6.707031-15 15-15 8.289062 0 15 6.710938 15 15v45h29.996094v-45c0-8.289062 6.710937-15 15-15 8.292968 0 15 6.710938 15 15v45h106c8.289062 0 15-6.707031 15-15v-106h-45c-8.289063 0-15-6.707031-15-14.996094 0-8.292968 6.710937-15 15-15h45v-30h-45c-8.289063 0-15-6.710937-15-15 0-8.292968 6.710937-15 15-15h45v-30h-45c-8.289063 0-15-6.710937-15-15 0-8.292968 6.710937-15 15-15h45v-30h-45c-8.289063 0-15-6.707031-15-15 0-8.289062 6.710937-15 15-15h45v-30h-45c-8.289063 0-15-6.707031-15-15 0-8.289062 6.710937-15 15-15zm-45.996094 284.996094c0 8.292969-6.710938 15-15 15h-172.71875c-6.066406 0-11.542969-3.648438-13.855469-9.257812-2.332031-5.609376-1.042969-12.054688 3.25-16.347657l172.71875-172.71875c4.304688-4.289062 10.722657-5.578125 16.347657-3.25 5.609374 2.3125 9.257812 7.792969 9.257812 13.855469zm0 0"/><path d="m69.789062 228.582031 128.785157-128.789062 63.632812 63.632812-128.785156 128.785157zm0 0"/><path d="m219.789062 78.582031 23.789063-23.785156 63.628906 63.628906-23.789062 23.789063zm0 0"/><path d="m16.003906 361c2.195313 0 4.394532-.480469 6.460938-1.464844l81.207031-38.789062c1.539063-.730469 2.945313-1.726563 4.148437-2.929688l4.394532-4.394531-63.632813-63.632813-4.394531 4.398438c-1.203125 1.199219-2.195312 2.605469-2.929688 4.144531l-38.789062 81.210938c-2.738281 5.726562-1.566406 12.566406 2.929688 17.0625 2.871093 2.886719 6.707031 4.394531 10.605468 4.394531zm0 0"/><path d="m341.605469 84.03125c17.546875-17.546875 17.546875-46.082031 0-63.632812-17.550781-17.546876-46.085938-17.546876-63.632813 0l-13.183594 13.183593 63.632813 63.632813zm0 0"/></svg>