<svg width="438" height="512" viewBox="0 0 438 512" fill="none" xmlns="http://www.w3.org/2000/svg">
<path d="M358.74 126.571L373.703 106.746C383.253 94.097 374.211 75.912 358.346 75.912H271.439V52.438C271.44 23.524 247.916 0 219.001 0C190.086 0 166.562 23.524 166.562 52.439V75.913H79.655C63.807 75.913 54.739 94.086 64.298 106.747L79.261 126.572C29.9 167.822 0.957001 229.029 0.957001 293.957C0.957001 414.186 98.771 512 219 512C339.229 512 437.043 414.186 437.043 293.957C437.044 229.027 408.102 167.821 358.74 126.571ZM185.804 114.395V114.396C196.43 114.396 205.045 105.781 205.045 95.155V52.439C205.045 44.744 211.306 38.483 219.001 38.483C226.696 38.483 232.957 44.744 232.957 52.439V95.155C232.957 105.781 241.572 114.396 252.198 114.396H319.715C311.318 125.521 314.288 116.026 304.24 193.525C258.82 165.32 259.495 164.616 252.186 164.616C244.062 164.616 236.815 169.718 234.074 177.364L218.998 219.415L203.915 177.361C201.954 171.89 197.624 167.601 192.135 165.687C180.611 161.669 176.915 166.726 133.761 193.524C123.711 115.998 126.671 125.505 118.286 114.395H185.804ZM219.001 473.517C119.99 473.517 39.441 392.966 39.441 293.957C39.441 246.159 58.491 200.808 91.577 167.453L99.443 228.112C101.24 241.982 116.803 249.354 128.675 241.984L175.732 212.763L200.892 282.917C206.963 299.847 231.032 299.887 237.116 282.914L262.267 212.757L309.33 241.982C321.21 249.359 336.767 241.968 338.562 228.11L346.428 167.451C379.514 200.807 398.564 246.157 398.564 293.955C398.562 392.966 318.011 473.517 219.001 473.517Z" fill="#CD1414"/>
<path d="M163.282 402.007C144.907 392.286 129.272 377.867 118.072 360.307C112.356 351.348 100.462 348.717 91.501 354.433C82.542 360.148 79.913 372.044 85.627 381.003C100.406 404.168 121.035 423.194 145.286 436.023C154.678 440.991 166.322 437.408 171.291 428.012C176.261 418.62 172.674 406.977 163.282 402.007Z" fill="#CD1414"/>
</svg>
